<svg width="23" height="23" viewBox="0 0 23 23" fill="none" xmlns="http://www.w3.org/2000/svg">
<path d="M11.596 12.9181L6.95692 17.5573C6.78335 17.7308 6.56243 17.8176 6.29419 17.8176C6.02594 17.8176 5.80503 17.7308 5.63145 17.5573C5.45788 17.3837 5.37109 17.1628 5.37109 16.8945C5.37109 16.6263 5.45788 16.4054 5.63145 16.2318L10.2706 11.5927L5.63145 6.95353C5.45788 6.77996 5.37109 6.55905 5.37109 6.2908C5.37109 6.02255 5.45788 5.80164 5.63145 5.62807C5.80503 5.45449 6.02594 5.36771 6.29419 5.36771C6.56243 5.36771 6.78335 5.45449 6.95692 5.62807L11.596 10.2672L16.2352 5.62807C16.4088 5.45449 16.6297 5.36771 16.8979 5.36771C17.1662 5.36771 17.3871 5.45449 17.5606 5.62807C17.7342 5.80164 17.821 6.02255 17.821 6.2908C17.821 6.55905 17.7342 6.77996 17.5606 6.95353L12.9215 11.5927L17.5606 16.2318C17.7342 16.4054 17.821 16.6263 17.821 16.8945C17.821 17.1628 17.7342 17.3837 17.5606 17.5573C17.3871 17.7308 17.1662 17.8176 16.8979 17.8176C16.6297 17.8176 16.4088 17.7308 16.2352 17.5573L11.596 12.9181Z" fill="#FFD803"/>
</svg>
