<svg width="46" height="47" viewBox="0 0 46 47" fill="none" xmlns="http://www.w3.org/2000/svg">
<rect x="0.415843" y="1.16218" width="45.1683" height="44.5939" rx="22.297" stroke="black" stroke-width="0.831685"/>
<path d="M22.3412 33.3251C22.0934 33.0773 21.9637 32.762 21.952 32.379C21.9412 31.9961 22.0596 31.6808 22.3074 31.433L28.9297 24.8107H13.8268C13.4439 24.8107 13.1227 24.681 12.8632 24.4215C12.6046 24.1629 12.4753 23.8421 12.4753 23.4592C12.4753 23.0763 12.6046 22.7551 12.8632 22.4956C13.1227 22.237 13.4439 22.1077 13.8268 22.1077H28.9297L22.3074 15.4854C22.0596 15.2376 21.9412 14.9223 21.952 14.5394C21.9637 14.1565 22.0934 13.8411 22.3412 13.5933C22.589 13.3456 22.9043 13.2217 23.2873 13.2217C23.6702 13.2217 23.9855 13.3456 24.2333 13.5933L33.1531 22.5132C33.2883 22.6258 33.3842 22.7663 33.441 22.9348C33.4968 23.1042 33.5248 23.279 33.5248 23.4592C33.5248 23.6394 33.4968 23.8083 33.441 23.966C33.3842 24.1237 33.2883 24.2701 33.1531 24.4052L24.2333 33.3251C23.9855 33.5728 23.6702 33.6967 23.2873 33.6967C22.9043 33.6967 22.589 33.5728 22.3412 33.3251Z" fill="black"/>
</svg>
