<svg width="46" height="46" viewBox="0 0 46 46" fill="none" xmlns="http://www.w3.org/2000/svg">
<rect x="0.702952" y="0.415843" width="44.5939" height="45.1683" rx="22.297" stroke="black" stroke-width="0.831685"/>
<path d="M13.134 22.3412C13.3818 22.0934 13.6972 21.9637 14.0801 21.952C14.463 21.9412 14.7783 22.0596 15.0261 22.3074L21.6484 28.9297L21.6484 13.8268C21.6484 13.4439 21.7782 13.1227 22.0376 12.8632C22.2962 12.6046 22.617 12.4753 22.9999 12.4753C23.3828 12.4753 23.704 12.6046 23.9635 12.8632C24.2221 13.1227 24.3514 13.4439 24.3514 13.8268L24.3514 28.9297L30.9737 22.3074C31.2215 22.0596 31.5368 21.9412 31.9197 21.952C32.3026 21.9637 32.618 22.0934 32.8658 22.3412C33.1135 22.589 33.2374 22.9043 33.2374 23.2873C33.2374 23.6702 33.1135 23.9855 32.8658 24.2333L23.9459 33.1531C23.8333 33.2883 23.6928 33.3842 23.5243 33.441C23.3549 33.4968 23.1801 33.5248 22.9999 33.5248C22.8197 33.5248 22.6508 33.4968 22.4931 33.441C22.3354 33.3842 22.189 33.2883 22.0539 33.1531L13.134 24.2333C12.8863 23.9855 12.7624 23.6702 12.7624 23.2873C12.7624 22.9043 12.8863 22.589 13.134 22.3412Z" fill="black"/>
</svg>
