<svg width="24" height="20" viewBox="0 0 24 20" fill="none" xmlns="http://www.w3.org/2000/svg">
<path d="M0.75 1.25116C0.75 0.560804 1.30964 0.00115967 2 0.00115967H22C22.6904 0.00115967 23.25 0.560804 23.25 1.25116V1.25116C23.25 1.94152 22.6904 2.50116 22 2.50116H2C1.30964 2.50116 0.75 1.94152 0.75 1.25116V1.25116ZM8.25 10.0012C8.25 9.3108 8.80964 8.75116 9.5 8.75116H22C22.6904 8.75116 23.25 9.3108 23.25 10.0012V10.0012C23.25 10.6915 22.6904 11.2512 22 11.2512H9.5C8.80964 11.2512 8.25 10.6915 8.25 10.0012V10.0012ZM0.75 18.7512C0.75 18.0608 1.30964 17.5012 2 17.5012H22C22.6904 17.5012 23.25 18.0608 23.25 18.7512V18.7512C23.25 19.4415 22.6904 20.0012 22 20.0012H2C1.30964 20.0012 0.75 19.4415 0.75 18.7512V18.7512Z" fill="#FFD803"/>
</svg>
