<svg width="41" height="41" viewBox="0 0 41 41" fill="none" xmlns="http://www.w3.org/2000/svg">
<path d="M35.875 5.125H5.12501C3.24584 5.125 1.70834 6.6625 1.70834 8.54167V32.4583C1.70834 34.3375 3.24584 35.875 5.12501 35.875H35.875C37.7542 35.875 39.2917 34.3375 39.2917 32.4583V8.54167C39.2917 6.6625 37.7542 5.125 35.875 5.125ZM34.1667 32.4583H22.2083C21.2688 32.4583 20.5 31.6896 20.5 30.75V23.9167C20.5 22.9771 21.2688 22.2083 22.2083 22.2083H34.1667C35.1063 22.2083 35.875 22.9771 35.875 23.9167V30.75C35.875 31.6896 35.1063 32.4583 34.1667 32.4583Z" fill="black"/>
</svg>
