<svg width="46" height="46" viewBox="0 0 46 46" fill="none" xmlns="http://www.w3.org/2000/svg">
<rect x="0.415843" y="0.662181" width="45.1683" height="44.5939" rx="22.297" stroke="black" stroke-width="0.831685"/>
<path d="M22.3412 32.8251C22.0934 32.5773 21.9637 32.262 21.952 31.879C21.9412 31.4961 22.0596 31.1808 22.3074 30.933L28.9297 24.3107H13.8268C13.4439 24.3107 13.1227 24.181 12.8632 23.9215C12.6046 23.6629 12.4753 23.3421 12.4753 22.9592C12.4753 22.5763 12.6046 22.2551 12.8632 21.9956C13.1227 21.737 13.4439 21.6077 13.8268 21.6077H28.9297L22.3074 14.9854C22.0596 14.7376 21.9412 14.4223 21.952 14.0394C21.9637 13.6565 22.0934 13.3411 22.3412 13.0933C22.589 12.8456 22.9043 12.7217 23.2873 12.7217C23.6702 12.7217 23.9855 12.8456 24.2333 13.0933L33.1531 22.0132C33.2883 22.1258 33.3842 22.2663 33.441 22.4348C33.4968 22.6042 33.5248 22.779 33.5248 22.9592C33.5248 23.1394 33.4968 23.3083 33.441 23.466C33.3842 23.6237 33.2883 23.7701 33.1531 23.9052L24.2333 32.8251C23.9855 33.0728 23.6702 33.1967 23.2873 33.1967C22.9043 33.1967 22.589 33.0728 22.3412 32.8251Z" fill="black"/>
</svg>
